<svg width="51" height="51" viewBox="0 0 51 51" fill="none" xmlns="http://www.w3.org/2000/svg">
<path d="M50.5 25.5C50.5 39.3071 39.3071 50.5 25.5 50.5C11.6929 50.5 0.5 39.3071 0.5 25.5C0.5 11.6929 11.6929 0.5 25.5 0.5C39.3071 0.5 50.5 11.6929 50.5 25.5Z" fill="#E0218A" stroke="#E0218A"/>
<path d="M13.0405 23.97C13.0405 25.17 13.1405 26.14 13.3405 26.88C13.5405 27.62 13.8905 28.32 14.3905 28.98L14.7805 29.52L14.3905 30H8.69055L8.33055 28.98L9.02055 28.8C9.78055 28.58 10.2905 28.29 10.5505 27.93C10.8105 27.57 10.9405 26.93 10.9405 26.01V12.45C10.9405 11.53 10.8105 10.89 10.5505 10.53C10.2905 10.17 9.78055 9.88 9.02055 9.66L8.33055 9.48L8.69055 8.46H13.5205L24.9805 25.47V12.45C24.9805 11.53 24.8505 10.89 24.5905 10.53C24.3305 10.17 23.8205 9.88 23.0605 9.66L22.3705 9.48L22.7305 8.46H28.4305L28.8205 8.94L28.4305 9.48C27.9305 10.14 27.5805 10.84 27.3805 11.58C27.1805 12.32 27.0805 13.29 27.0805 14.49V27.36C27.0805 27.74 27.1105 28.05 27.1705 28.29C27.2305 28.53 27.3405 28.76 27.5005 28.98L27.8905 29.52L27.5005 30H24.4705L13.0405 13.05V23.97Z" fill="#F5F5F5"/>
<path d="M41.9995 26.95C41.9995 28.07 41.7295 29.08 41.1895 29.98C40.6695 30.88 39.8895 31.58 38.8495 32.08C40.1895 32.52 41.2295 33.19 41.9695 34.09C42.7295 34.99 43.1095 35.99 43.1095 37.09C43.1095 38.91 42.4895 40.35 41.2495 41.41C40.0095 42.47 38.0295 43 35.3095 43H26.9395L26.5795 41.98L27.2695 41.8C28.0295 41.58 28.5395 41.29 28.7995 40.93C29.0595 40.57 29.1895 39.93 29.1895 39.01V24.19C29.1895 23.93 29.1395 23.75 29.0395 23.65C28.9395 23.53 28.7695 23.47 28.5295 23.47H26.7895L26.4295 22.36C27.2895 22.02 28.4195 21.72 29.8195 21.46C31.2195 21.18 32.5695 21.04 33.8695 21.04C36.6095 21.04 38.6495 21.59 39.9895 22.69C41.3295 23.79 41.9995 25.21 41.9995 26.95ZM32.1595 37.51C32.1595 39.15 32.4895 40.22 33.1495 40.72C33.8095 41.2 34.5895 41.44 35.4895 41.44C36.8895 41.44 37.9895 41.03 38.7895 40.21C39.5895 39.37 39.9895 38.28 39.9895 36.94C39.9895 36.18 39.7895 35.49 39.3895 34.87C39.0095 34.23 38.4595 33.72 37.7395 33.34C37.0195 32.96 36.1795 32.77 35.2195 32.77C34.8795 32.77 34.5195 32.73 34.1395 32.65C33.7795 32.57 33.4895 32.48 33.2695 32.38C32.9695 32.24 32.8195 32.02 32.8195 31.72C32.8195 31.36 32.9595 31.18 33.2395 31.18C33.3195 31.18 33.4795 31.22 33.7195 31.3C33.9795 31.36 34.3195 31.39 34.7395 31.39C36.0995 31.39 37.1495 30.99 37.8895 30.19C38.6495 29.39 39.0295 28.33 39.0295 27.01C39.0295 25.75 38.5995 24.72 37.7395 23.92C36.8995 23.12 35.7095 22.72 34.1695 22.72C32.8295 22.72 32.1595 23.18 32.1595 24.1V37.51Z" fill="#F5F5F5"/>
</svg>
